<svg xmlns="http://www.w3.org/2000/svg" id="Layer_1" data-name="Layer 1" viewBox="0 0 100 100"><defs><style>.cls-1,.cls-2,.cls-4{fill:none;stroke:#828587;stroke-linecap:round;stroke-linejoin:round;}.cls-1{stroke-width:3.77px;}.cls-2{stroke-width:3.53px;}.cls-3{fill:#828587;}.cls-4{stroke-width:3.01px;}</style></defs><title>Artboard 1map</title><path class="cls-1" d="M37.16,64.89V44.25A17.85,17.85,0,1,0,55.8,64.89Z"/><path class="cls-1" d="M47.54,38.57c-.32,0-.63,0-.94,0V55.49H65.44A17.9,17.9,0,0,0,47.54,38.57Z"/><polygon class="cls-2" points="55.09 94.7 57.13 82.53 66.7 90.37 55.09 94.7"/><rect class="cls-3" x="6.64" y="2" width="3.22" height="95" rx="1.61" ry="1.61"/><rect class="cls-3" x="28.76" y="-20.12" width="3.22" height="47.25" rx="1.14" ry="1.14" transform="translate(26.87 33.88) rotate(-90)"/><rect class="cls-3" x="27.26" y="74.38" width="3.22" height="44.25" rx="1.1" ry="1.1" transform="translate(-67.62 125.38) rotate(-90)"/><rect class="cls-3" x="67.9" y="51.59" width="3.22" height="35.56" rx="1" ry="1" transform="translate(69.61 167.57) rotate(-135)"/><rect class="cls-3" x="76.83" y="63.17" width="3.22" height="32.53" rx="0.97" ry="0.97" transform="translate(77.73 191.07) rotate(-135)"/><path class="cls-4" d="M89.62,68.66,80.24,58.44l3.36-3a2,2,0,0,1,2.83.13l6.67,7.27A2,2,0,0,1,93,65.61Z"/><rect class="cls-3" x="75.76" y="26.88" width="3.22" height="23.12" rx="0.79" ry="0.79"/><rect class="cls-3" x="50.76" y="2.88" width="3.22" height="27.12" rx="0.86" ry="0.86"/><rect class="cls-3" x="63.58" y="-2.32" width="3.22" height="35.73" rx="1" ry="1" transform="translate(9.15 52.3) rotate(-46.67)"/><rect class="cls-3" x="62.8" y="15.84" width="3.22" height="25.19" rx="0.83" ry="0.83" transform="translate(35.97 92.84) rotate(-90)"/></svg>