<svg xmlns="http://www.w3.org/2000/svg" viewBox="0 0 100 100"><title>Artboard 1gears</title><g id="Layer_2" data-name="Layer 2"><path d="M71.84,22.14H68.53a17.85,17.85,0,0,0-2.12-5l3.3-3.31a1.41,1.41,0,0,0,0-2L66,8.06a1.42,1.42,0,0,0-2,0L60.7,11.35a17.57,17.57,0,0,0-5.33-2.23V5.58A1.33,1.33,0,0,0,54,4.25H48.91a1.32,1.32,0,0,0-1.33,1.33V9a17.77,17.77,0,0,0-6,2.48L38.8,8.71a1.36,1.36,0,0,0-1.94,0L33.2,12.36a1.38,1.38,0,0,0,0,1.94l2.85,2.85a17.86,17.86,0,0,0-2.08,5H29.86a1.34,1.34,0,0,0-1.34,1.34V28.6a1.34,1.34,0,0,0,1.34,1.33h3.93a17.53,17.53,0,0,0,2.37,6L34,38.1a1.42,1.42,0,0,0,0,2l3.73,3.73a1.41,1.41,0,0,0,2,0l2.24-2.23a17.55,17.55,0,0,0,5.67,2.26v3.26a1.32,1.32,0,0,0,1.33,1.33H54a1.33,1.33,0,0,0,1.33-1.33V43.76a17.52,17.52,0,0,0,5.16-2.13l2.5,2.5a1.38,1.38,0,0,0,1.94,0l3.65-3.66a1.36,1.36,0,0,0,0-1.94L66.2,36.11a17.78,17.78,0,0,0,2.51-6.18h3.13a1.34,1.34,0,0,0,1.33-1.33V23.48A1.34,1.34,0,0,0,71.84,22.14ZM70.48,27a.83.83,0,0,1-.82.83H66a14.58,14.58,0,0,1-3.35,7.78L66,39a.82.82,0,0,1,0,1.17L64.79,41.4a.83.83,0,0,1-1.17,0l-3.51-3.51a14.53,14.53,0,0,1-7,2.79V45a.83.83,0,0,1-.83.83H50.56a.83.83,0,0,1-.83-.83V40.7a14.59,14.59,0,0,1-7.46-3.06l-3,3a.83.83,0,0,1-1.17,0l-1.23-1.23a.83.83,0,0,1,0-1.17l3-3a14.59,14.59,0,0,1-3.09-7.46h-5a.83.83,0,0,1-.83-.83V25.21a.83.83,0,0,1,.83-.83h5a14.6,14.6,0,0,1,2.81-7L36.83,14.6a.83.83,0,0,1,0-1.17l1.23-1.23a.83.83,0,0,1,1.17,0l2.67,2.67a14.58,14.58,0,0,1,7.83-3.37V7.14a.83.83,0,0,1,.83-.83H52.3a.83.83,0,0,1,.83.83v4.38a14.75,14.75,0,0,1,7.37,3.09l3.12-3.13a.83.83,0,0,1,1.17,0L66,12.72a.82.82,0,0,1,0,1.17L62.9,17A14.71,14.71,0,0,1,66,24.38h3.71a.83.83,0,0,1,.82.83Z" style="fill:#9da0a3"/><path d="M51.16,15.34A11.28,11.28,0,1,0,62.43,26.62,11.28,11.28,0,0,0,51.16,15.34ZM51.09,35a8.34,8.34,0,1,1,8.34-8.34A8.33,8.33,0,0,1,51.09,35Z" style="fill:#9da0a3"/><path d="M50.44,71.69H47.13a17.85,17.85,0,0,0-2.12-5l3.31-3.31a1.41,1.41,0,0,0,0-2l-3.74-3.74a1.41,1.41,0,0,0-2,0L39.3,60.9A17.46,17.46,0,0,0,34,58.67V55.13a1.32,1.32,0,0,0-1.33-1.33H27.51a1.33,1.33,0,0,0-1.33,1.33v3.43a17.85,17.85,0,0,0-6,2.48L17.4,58.26a1.36,1.36,0,0,0-1.94,0l-3.65,3.65a1.36,1.36,0,0,0,0,1.94l2.85,2.85a17.6,17.6,0,0,0-2.09,5H8.46A1.33,1.33,0,0,0,7.13,73v5.12a1.33,1.33,0,0,0,1.33,1.33h3.93a17.73,17.73,0,0,0,2.37,6l-2.21,2.21a1.42,1.42,0,0,0,0,2l3.73,3.73a1.42,1.42,0,0,0,2,0l2.23-2.23a17.55,17.55,0,0,0,5.67,2.26v3.26A1.33,1.33,0,0,0,27.51,98h5.13A1.32,1.32,0,0,0,34,96.67V93.31a17.69,17.69,0,0,0,5.17-2.13l2.49,2.5a1.38,1.38,0,0,0,1.94,0L47.22,90a1.36,1.36,0,0,0,0-1.94L44.8,85.66a17.59,17.59,0,0,0,2.51-6.18h3.13a1.33,1.33,0,0,0,1.33-1.33V73A1.33,1.33,0,0,0,50.44,71.69ZM49.09,76.5a.83.83,0,0,1-.83.83h-3.7a14.6,14.6,0,0,1-3.36,7.78l3.43,3.43a.83.83,0,0,1,0,1.17L43.4,90.94a.83.83,0,0,1-1.18,0l-3.5-3.5a14.57,14.57,0,0,1-7,2.79v4.35a.83.83,0,0,1-.83.83H29.16a.83.83,0,0,1-.83-.83V90.25a14.56,14.56,0,0,1-7.45-3.06l-3,3a.85.85,0,0,1-1.18,0L15.43,89a.85.85,0,0,1,0-1.18l3-3a14.64,14.64,0,0,1-3.1-7.46h-5a.83.83,0,0,1-.83-.83V74.76a.83.83,0,0,1,.83-.83h5a14.49,14.49,0,0,1,2.8-7l-2.75-2.75a.83.83,0,0,1,0-1.17l1.23-1.23a.85.85,0,0,1,1.18,0l2.66,2.67a14.65,14.65,0,0,1,7.83-3.37V56.69a.83.83,0,0,1,.83-.83H30.9a.83.83,0,0,1,.83.83v4.38a14.67,14.67,0,0,1,7.37,3.09L42.22,61a.85.85,0,0,1,1.18,0l1.23,1.23a.85.85,0,0,1,0,1.18L41.5,66.57a14.54,14.54,0,0,1,3,7.36h3.71a.83.83,0,0,1,.83.83Z" style="fill:#9da0a3"/><path d="M29.76,64.89A11.28,11.28,0,1,0,41,76.17,11.28,11.28,0,0,0,29.76,64.89Zm-.07,19.64A8.34,8.34,0,1,1,38,76.19,8.34,8.34,0,0,1,29.69,84.53Z" style="fill:#9da0a3"/><path d="M93.23,61.56H89.92a17.5,17.5,0,0,0-2.12-5.05l3.31-3.3a1.42,1.42,0,0,0,0-2l-3.74-3.73a1.41,1.41,0,0,0-2,0l-3.29,3.29a17.73,17.73,0,0,0-5.33-2.24V45a1.33,1.33,0,0,0-1.32-1.33H70.3A1.33,1.33,0,0,0,69,45v3.44a17.48,17.48,0,0,0-6,2.48l-2.79-2.79a1.38,1.38,0,0,0-1.94,0L54.6,51.78a1.36,1.36,0,0,0,0,1.94l2.85,2.85a18.06,18.06,0,0,0-2.09,5H51.25a1.33,1.33,0,0,0-1.33,1.33V68a1.32,1.32,0,0,0,1.33,1.33h3.93a17.58,17.58,0,0,0,2.38,6l-2.22,2.22a1.41,1.41,0,0,0,0,2l3.74,3.73a1.41,1.41,0,0,0,2,0L63.3,81A17.76,17.76,0,0,0,69,83.28v3.26a1.32,1.32,0,0,0,1.32,1.32h5.14a1.32,1.32,0,0,0,1.32-1.32V83.18a18,18,0,0,0,5.17-2.13l2.49,2.49a1.36,1.36,0,0,0,1.94,0L90,79.89A1.38,1.38,0,0,0,90,78l-2.43-2.43a17.8,17.8,0,0,0,2.52-6.18h3.12A1.33,1.33,0,0,0,94.57,68V62.89A1.34,1.34,0,0,0,93.23,61.56Zm-1.35,4.81a.83.83,0,0,1-.83.83h-3.7A14.66,14.66,0,0,1,84,75l3.43,3.43a.82.82,0,0,1,0,1.17l-1.23,1.23a.83.83,0,0,1-1.17,0L81.51,77.3a14.58,14.58,0,0,1-7,2.8v4.34a.83.83,0,0,1-.83.83H72a.83.83,0,0,1-.83-.83V80.12a14.57,14.57,0,0,1-7.45-3.07l-3,3a.82.82,0,0,1-1.17,0l-1.23-1.23a.82.82,0,0,1,0-1.17l3-3a14.64,14.64,0,0,1-3.1-7.46h-5a.83.83,0,0,1-.83-.83V64.63a.83.83,0,0,1,.83-.83h5a14.66,14.66,0,0,1,2.8-7L58.23,54a.82.82,0,0,1,0-1.17l1.23-1.24a.83.83,0,0,1,1.17,0l2.67,2.67a14.65,14.65,0,0,1,7.82-3.36V46.55a.83.83,0,0,1,.83-.83h1.74a.83.83,0,0,1,.83.83v4.39A14.57,14.57,0,0,1,81.89,54L85,50.9a.82.82,0,0,1,1.17,0l1.23,1.23a.82.82,0,0,1,0,1.17l-3.13,3.13a14.57,14.57,0,0,1,3,7.37h3.71a.83.83,0,0,1,.83.83Z" style="fill:#9da0a3"/><path d="M72.55,54.76A11.28,11.28,0,1,0,83.83,66,11.28,11.28,0,0,0,72.55,54.76ZM72.49,74.4a8.35,8.35,0,1,1,8.34-8.34A8.35,8.35,0,0,1,72.49,74.4Z" style="fill:#9da0a3"/></g></svg>