<svg id="Layer_1" data-name="Layer 1" xmlns="http://www.w3.org/2000/svg" viewBox="0 0 100 100"><title>Artboard 1managment</title><line x1="8.5" y1="6.5" x2="8.5" y2="28.06" style="fill:none;stroke:#828587;stroke-linecap:round;stroke-miterlimit:10;stroke-width:4px"/><line x1="8.5" y1="6.5" x2="27.52" y2="6.5" style="fill:none;stroke:#828587;stroke-linecap:round;stroke-miterlimit:10;stroke-width:4px"/><line x1="8.5" y1="94" x2="8.5" y2="72.44" style="fill:none;stroke:#828587;stroke-linecap:round;stroke-miterlimit:10;stroke-width:4px"/><line x1="8.5" y1="94" x2="27.52" y2="94" style="fill:none;stroke:#828587;stroke-linecap:round;stroke-miterlimit:10;stroke-width:4px"/><line x1="93.46" y1="6.5" x2="93.46" y2="28.06" style="fill:none;stroke:#828587;stroke-linecap:round;stroke-miterlimit:10;stroke-width:4px"/><line x1="93.46" y1="6.5" x2="74.44" y2="6.5" style="fill:none;stroke:#828587;stroke-linecap:round;stroke-miterlimit:10;stroke-width:4px"/><line x1="93.46" y1="94" x2="93.46" y2="72.44" style="fill:none;stroke:#828587;stroke-linecap:round;stroke-miterlimit:10;stroke-width:4px"/><line x1="93.46" y1="94" x2="74.44" y2="94" style="fill:none;stroke:#828587;stroke-linecap:round;stroke-miterlimit:10;stroke-width:4px"/><polygon points="73.8 70.01 71.4 65.14 66.6 62.71 61.8 60.27 59.4 57.84 59.4 55.41 60.6 51.76 63 46.9 63 32.3 59.4 27.43 54.6 25 47.4 25 43.8 26.22 39 29.87 37.8 33.52 37.8 46.9 40.2 50.54 41.4 54.19 41.4 59.06 36.6 61.49 31.8 63.92 28.2 67.57 27 71.22 75 71.22 73.8 70.01" style="fill:none;stroke:#828587;stroke-miterlimit:10;stroke-width:3.62447820480527px"/></svg>