<svg id="Layer_1" data-name="Layer 1" xmlns="http://www.w3.org/2000/svg" viewBox="0 0 100 100"><title>Artboard 1tariffs</title><path d="M73.15,61.43a1.51,1.51,0,0,0,.5-.92l5.9-35.33c.31-1.86-2-4.14-3.83-3.83l-35.34,5.9a1.51,1.51,0,0,0-.91.5,1.57,1.57,0,0,0-.82.39L5.35,61.45c-.8.8-.5,2.4.68,3.58L35.87,94.87c1.18,1.18,2.78,1.48,3.58.68l33.3-33.3A1.55,1.55,0,0,0,73.15,61.43ZM38.67,92.07c-.75.75-2.19.52-3.22-.51L9.34,65.45c-1-1-1.26-2.47-.51-3.22l31-31a1.38,1.38,0,0,1,.75-.38,1.41,1.41,0,0,1,.84-.48L73.54,24a3.14,3.14,0,0,1,3.35,3.35L70.56,59.45a1.47,1.47,0,0,1-.48.84,1.53,1.53,0,0,1-.38.75Z" style="fill:#828587"/><path d="M63,32a7,7,0,1,0,7,7A7,7,0,0,0,63,32Zm0,12a5,5,0,1,1,5-5A5,5,0,0,1,63,44Z" style="fill:#828587"/><text transform="matrix(0.89, 0.89, -0.71, 0.71, 24.65, 63.16)" style="font-size:32.525672912597656px;fill:#828587;font-family:MyriadPro-Regular, Myriad Pro">$</text></svg>